# xmcd CD database file
#
# Track frame offsets:
#	225
#	23902
#	46012
#	65730
#	77002
#	92137
#	109857
#	130310
#	152292
#
# Disc length: 2506 seconds
#
# Revision: 1
# Processed by: cddbd v1.5.2PL0 Copyright (c) Steve Scherf et al.
# Submitted via: CDex 1.70beta2
#
DISCID=6a09c709
DTITLE=Free Flight - Beyond The Clouds
DYEAR=1984
DGENRE=Jazz
TTITLE0=Norwegian Wood
TTITLE1=Admiration
TTITLE2=What Is This Thing Called Jazz
TTITLE3=Yearnings
TTITLE4=Tocatta
TTITLE5=Sunset Strut
TTITLE6=Lullabye For Collin
TTITLE7=Ivan's Song
TTITLE8=Waldstein Sonata
EXTD=YEAR: 1984
EXTT0=
EXTT1=
EXTT2=
EXTT3=
EXTT4=
EXTT5=
EXTT6=
EXTT7=
EXTT8=
PLAYORDER=
